<?xml version="1.0" encoding="UTF-8" standalone="no"?>
<svg width="57px" height="58px" viewBox="0 0 57 58" version="1.1" xmlns="http://www.w3.org/2000/svg" xmlns:xlink="http://www.w3.org/1999/xlink" xmlns:sketch="http://www.bohemiancoding.com/sketch/ns">
    <!-- Generator: Sketch 3.3.3 (12081) - http://www.bohemiancoding.com/sketch -->
    <title>Edit</title>
    <desc>Created with Sketch.</desc>
    <defs></defs>
    <g id="Home" stroke="none" stroke-width="1" fill="none" fill-rule="evenodd" sketch:type="MSPage">
        <g id="Home-Page-Mockup-Copy-5" sketch:type="MSArtboardGroup" transform="translate(-655.000000, -1006.000000)" stroke="#415E7F" stroke-width="2" stroke-linecap="round" stroke-linejoin="round">
            <g id="What-I-Do" sketch:type="MSLayerGroup" transform="translate(0.000000, 585.000000)">
                <g id="Code-+-Front-end-Copy-3-+-flat-chat" transform="translate(522.000000, 393.000000)" sketch:type="MSShapeGroup">
                    <g id="Edit" transform="translate(134.500000, 29.000000)">
                        <path d="M15.1865752,51.6362292 L0.0625937647,55.3029374 L3.66407525,39.9006885 L40.3938901,2.49404168 L51.9174086,14.2295823 L15.1865752,51.6362292 L15.1865752,51.6362292 Z" id="Stroke-7668"></path>
                        <path d="M3.66407525,39.9006885 L10.1459271,39.1663096" id="Stroke-7670"></path>
                        <path d="M9.42583451,45.7684589 L10.1459271,39.1663096" id="Stroke-7672"></path>
                        <path d="M9.42583451,45.7684589 L15.9076864,45.0351172" id="Stroke-7674"></path>
                        <path d="M15.1865752,51.6362292 L15.9076864,45.0351172" id="Stroke-7676"></path>
                        <path d="M9.42583451,45.7684589 L15.9076864,45.0351172" id="Stroke-7678"></path>
                        <path d="M0.0625937647,55.3029374 L3.37787154,51.9266615" id="Stroke-7680"></path>
                        <path d="M40.3938901,2.49404168 C43.5757419,-0.746353317 48.7355567,-0.746353317 51.9174086,2.49404168 C55.0992604,5.73547394 55.0992604,10.9891873 51.9174086,14.2295823" id="Stroke-7682"></path>
                        <path d="M34.6321308,8.36181201 L46.1556493,20.0973527" id="Stroke-7684"></path>
                        <path d="M37.5135197,5.42844547 L49.0360197,17.1629489" id="Stroke-7686"></path>
                        <path d="M10.1459271,39.1663096 L33.1919456,15.6962656" id="Stroke-7688"></path>
                        <path d="M15.9076864,45.0351172 L38.9537049,21.5640359" id="Stroke-7690"></path>
                    </g>
                </g>
            </g>
        </g>
    </g>
</svg>